<?xml version="1.0" encoding="utf-8" standalone="no"?>
<!DOCTYPE svg PUBLIC "-//W3C//DTD SVG 1.1//EN"
  "http://www.w3.org/Graphics/SVG/1.1/DTD/svg11.dtd">
<svg xmlns:xlink="http://www.w3.org/1999/xlink" width="507.11952pt" height="140.87952pt" viewBox="0 0 507.11952 140.87952" xmlns="http://www.w3.org/2000/svg" version="1.1">
 <metadata>
  <rdf:RDF xmlns:dc="http://purl.org/dc/elements/1.1/" xmlns:cc="http://creativecommons.org/ns#" xmlns:rdf="http://www.w3.org/1999/02/22-rdf-syntax-ns#">
   <cc:Work>
    <dc:type rdf:resource="http://purl.org/dc/dcmitype/StillImage"/>
    <dc:date>2026-06-17T11:03:27.257087</dc:date>
    <dc:format>image/svg+xml</dc:format>
    <dc:creator>
     <cc:Agent>
      <dc:title>Matplotlib v3.10.6, https://matplotlib.org/</dc:title>
     </cc:Agent>
    </dc:creator>
   </cc:Work>
  </rdf:RDF>
 </metadata>
 <defs>
  <style type="text/css">*{stroke-linejoin: round; stroke-linecap: butt}</style>
 </defs>
 <g id="figure_1">
  <g id="patch_1">
   <path d="M 0 140.87952 
L 507.11952 140.87952 
L 507.11952 0 
L 0 0 
z
" style="fill: #ffffff"/>
  </g>
  <g id="axes_1">
   <g id="patch_2">
    <path d="M 40.889219 124.02077 
L 187.818999 124.02077 
L 187.818999 28.34423 
L 40.889219 28.34423 
z
" style="fill: #ffffff"/>
   </g>
   <g id="line2d_1">
    <path d="M 40.889219 76.1825 
L 187.818999 76.1825 
" clip-path="url(#pfd984fa087)" style="fill: none; stroke-dasharray: 1.85,0.8; stroke-dashoffset: 0; stroke: #000000; stroke-width: 0.5"/>
   </g>
   <g id="line2d_2">
    <path d="M 114.354109 124.02077 
L 114.354109 28.34423 
" clip-path="url(#pfd984fa087)" style="fill: none; stroke-dasharray: 1.85,0.8; stroke-dashoffset: 0; stroke: #000000; stroke-width: 0.5"/>
   </g>
   <g id="matplotlib.axis_1">
    <g id="text_1">
     <text style="font-size: 10px; font-family: 'Helvetica'; text-anchor: middle; fill: #262626" x="114.354109" y="137.29577" transform="rotate(-0 114.354109 137.29577)">Risky / safe payoff</text>
    </g>
   </g>
   <g id="matplotlib.axis_2">
    <g id="ytick_1">
     <g id="line2d_3">
      <defs>
       <path id="m4580eafb7b" d="M 0 0 
L -3 0 
" style="stroke: #262626; stroke-width: 0.6"/>
      </defs>
      <g>
       <use xlink:href="#m4580eafb7b" x="37.889219" y="121.312943" style="fill: #262626; stroke: #262626; stroke-width: 0.6"/>
      </g>
     </g>
     <g id="text_2">
      <text style="font-size: 9px; font-family: 'Helvetica'; text-anchor: end; fill: #262626" x="31.389219" y="124.54099" transform="rotate(-0 31.389219 124.54099)">0.00</text>
     </g>
    </g>
    <g id="ytick_2">
     <g id="line2d_4">
      <g>
       <use xlink:href="#m4580eafb7b" x="37.889219" y="98.747722" style="fill: #262626; stroke: #262626; stroke-width: 0.6"/>
      </g>
     </g>
     <g id="text_3">
      <text style="font-size: 9px; font-family: 'Helvetica'; text-anchor: end; fill: #262626" x="31.389219" y="101.975769" transform="rotate(-0 31.389219 101.975769)">0.25</text>
     </g>
    </g>
    <g id="ytick_3">
     <g id="line2d_5">
      <g>
       <use xlink:href="#m4580eafb7b" x="37.889219" y="76.1825" style="fill: #262626; stroke: #262626; stroke-width: 0.6"/>
      </g>
     </g>
     <g id="text_4">
      <text style="font-size: 9px; font-family: 'Helvetica'; text-anchor: end; fill: #262626" x="31.389219" y="79.410547" transform="rotate(-0 31.389219 79.410547)">0.50</text>
     </g>
    </g>
    <g id="ytick_4">
     <g id="line2d_6">
      <g>
       <use xlink:href="#m4580eafb7b" x="37.889219" y="53.617278" style="fill: #262626; stroke: #262626; stroke-width: 0.6"/>
      </g>
     </g>
     <g id="text_5">
      <text style="font-size: 9px; font-family: 'Helvetica'; text-anchor: end; fill: #262626" x="31.389219" y="56.845325" transform="rotate(-0 31.389219 56.845325)">0.75</text>
     </g>
    </g>
    <g id="ytick_5">
     <g id="line2d_7">
      <g>
       <use xlink:href="#m4580eafb7b" x="37.889219" y="31.052057" style="fill: #262626; stroke: #262626; stroke-width: 0.6"/>
      </g>
     </g>
     <g id="text_6">
      <text style="font-size: 9px; font-family: 'Helvetica'; text-anchor: end; fill: #262626" x="31.389219" y="34.280103" transform="rotate(-0 31.389219 34.280103)">1.00</text>
     </g>
    </g>
    <g id="text_7">
     <text style="font-size: 10px; font-family: 'Helvetica'; text-anchor: middle; fill: #262626" x="8.730625" y="76.1825" transform="rotate(-90 8.730625 76.1825)">P(risky choice)</text>
    </g>
   </g>
   <g id="FillBetweenPolyCollection_1">
    <defs>
     <path id="m5a540e072d" d="M 47.567845 -47.914845 
L 47.567845 -40.430902 
L 69.829933 -52.820588 
L 92.092021 -57.175279 
L 114.354109 -68.799788 
L 136.616197 -75.979631 
L 158.878285 -83.659391 
L 181.140373 -88.903349 
L 181.140373 -97.108884 
L 181.140373 -97.108884 
L 158.878285 -93.140577 
L 136.616197 -85.271193 
L 114.354109 -77.636518 
L 92.092021 -68.081803 
L 69.829933 -61.982407 
L 47.567845 -47.914845 
z
"/>
    </defs>
    <g clip-path="url(#pfd984fa087)">
     <use xlink:href="#m5a540e072d" x="0" y="140.87952" style="fill: #737373; fill-opacity: 0.15"/>
    </g>
   </g>
   <g id="FillBetweenPolyCollection_2">
    <defs>
     <path id="ma621052313" d="M 47.567845 -48.368417 
L 47.567845 -40.204116 
L 69.829933 -51.463281 
L 92.092021 -58.679628 
L 114.354109 -68.48419 
L 136.616197 -76.311472 
L 158.878285 -83.280144 
L 181.140373 -87.262242 
L 181.140373 -95.878054 
L 181.140373 -95.878054 
L 158.878285 -92.761329 
L 136.616197 -84.939351 
L 114.354109 -78.267713 
L 92.092021 -68.45789 
L 69.829933 -61.982407 
L 47.567845 -48.368417 
z
"/>
    </defs>
    <g clip-path="url(#pfd984fa087)">
     <use xlink:href="#ma621052313" x="0" y="140.87952" style="fill: #737373; fill-opacity: 0.15"/>
    </g>
   </g>
   <g id="line2d_8">
    <path d="M 47.567845 96.355128 
L 69.829933 83.473498 
L 92.092021 77.63921 
L 114.354109 67.075408 
L 136.616197 59.97868 
L 158.878285 52.727311 
L 181.140373 48.320605 
" clip-path="url(#pfd984fa087)" style="fill: none; stroke: #737373; stroke-width: 1.1; stroke-linecap: round"/>
   </g>
   <g id="line2d_9">
    <path d="M 47.567845 96.504807 
L 69.829933 83.784548 
L 92.092021 77.542681 
L 114.354109 67.404681 
L 136.616197 60.201014 
L 158.878285 52.691915 
L 181.140373 48.447791 
" clip-path="url(#pfd984fa087)" style="fill: none; stroke: #737373; stroke-width: 1.1; stroke-linecap: round"/>
   </g>
   <g id="patch_3">
    <path d="M 37.889219 124.02077 
L 37.889219 28.34423 
" style="fill: none; stroke: #262626; stroke-width: 0.6; stroke-linejoin: miter; stroke-linecap: square"/>
   </g>
   <g id="patch_4">
    <path d="M 40.889219 127.02077 
L 187.818999 127.02077 
" style="fill: none; stroke: #262626; stroke-width: 0.6; stroke-linejoin: miter; stroke-linecap: square"/>
   </g>
   <g id="line2d_10">
    <defs>
     <path id="m67f5a6b0fa" d="M 0 1.75 
C 0.464105 1.75 0.909265 1.565609 1.237437 1.237437 
C 1.565609 0.909265 1.75 0.464105 1.75 0 
C 1.75 -0.464105 1.565609 -0.909265 1.237437 -1.237437 
C 0.909265 -1.565609 0.464105 -1.75 0 -1.75 
C -0.464105 -1.75 -0.909265 -1.565609 -1.237437 -1.237437 
C -1.565609 -0.909265 -1.75 -0.464105 -1.75 0 
C -1.75 0.464105 -1.565609 0.909265 -1.237437 1.237437 
C -0.909265 1.565609 -0.464105 1.75 0 1.75 
z
" style="stroke: #000000; stroke-opacity: 0"/>
    </defs>
    <g clip-path="url(#pfd984fa087)">
     <use xlink:href="#m67f5a6b0fa" x="47.567845" y="107.478988" style="fill: #1f77b4; stroke: #000000; stroke-opacity: 0"/>
     <use xlink:href="#m67f5a6b0fa" x="69.829933" y="88.737586" style="fill: #1f77b4; stroke: #000000; stroke-opacity: 0"/>
     <use xlink:href="#m67f5a6b0fa" x="92.092021" y="83.704241" style="fill: #1f77b4; stroke: #000000; stroke-opacity: 0"/>
     <use xlink:href="#m67f5a6b0fa" x="114.354109" y="68.292562" style="fill: #1f77b4; stroke: #000000; stroke-opacity: 0"/>
     <use xlink:href="#m67f5a6b0fa" x="136.616197" y="56.27201" style="fill: #1f77b4; stroke: #000000; stroke-opacity: 0"/>
     <use xlink:href="#m67f5a6b0fa" x="158.878285" y="53.806902" style="fill: #1f77b4; stroke: #000000; stroke-opacity: 0"/>
     <use xlink:href="#m67f5a6b0fa" x="181.140373" y="45.001466" style="fill: #1f77b4; stroke: #000000; stroke-opacity: 0"/>
    </g>
   </g>
   <g id="line2d_11">
    <defs>
     <path id="mbd745a0eef" d="M 0 1.75 
C 0.464105 1.75 0.909265 1.565609 1.237437 1.237437 
C 1.565609 0.909265 1.75 0.464105 1.75 0 
C 1.75 -0.464105 1.565609 -0.909265 1.237437 -1.237437 
C 0.909265 -1.565609 0.464105 -1.75 0 -1.75 
C -0.464105 -1.75 -0.909265 -1.565609 -1.237437 -1.237437 
C -1.565609 -0.909265 -1.75 -0.464105 -1.75 0 
C -1.75 0.464105 -1.565609 0.909265 -1.237437 1.237437 
C -0.909265 1.565609 -0.464105 1.75 0 1.75 
z
" style="stroke: #000000; stroke-opacity: 0"/>
    </defs>
    <g clip-path="url(#pfd984fa087)">
     <use xlink:href="#mbd745a0eef" x="47.567845" y="93.645033" style="fill: #ff7f0e; stroke: #000000; stroke-opacity: 0"/>
     <use xlink:href="#mbd745a0eef" x="69.829933" y="79.23644" style="fill: #ff7f0e; stroke: #000000; stroke-opacity: 0"/>
     <use xlink:href="#mbd745a0eef" x="92.092021" y="73.173804" style="fill: #ff7f0e; stroke: #000000; stroke-opacity: 0"/>
     <use xlink:href="#mbd745a0eef" x="114.354109" y="61.349417" style="fill: #ff7f0e; stroke: #000000; stroke-opacity: 0"/>
     <use xlink:href="#mbd745a0eef" x="136.616197" y="53.94912" style="fill: #ff7f0e; stroke: #000000; stroke-opacity: 0"/>
     <use xlink:href="#mbd745a0eef" x="158.878285" y="48.118191" style="fill: #ff7f0e; stroke: #000000; stroke-opacity: 0"/>
     <use xlink:href="#mbd745a0eef" x="181.140373" y="48.28368" style="fill: #ff7f0e; stroke: #000000; stroke-opacity: 0"/>
    </g>
   </g>
   <g id="text_8">
    <text style="font-size: 10px; font-family: 'Helvetica'; text-anchor: middle; fill: #262626" x="114.354109" y="22.34423" transform="rotate(-0 114.354109 22.34423)">Stake size Small</text>
   </g>
   <g id="legend_1">
    <g id="line2d_12">
     <g>
      <use xlink:href="#m67f5a6b0fa" x="51.689219" y="36.08298" style="fill: #1f77b4; stroke: #000000; stroke-opacity: 0"/>
     </g>
    </g>
    <g id="text_9">
     <text style="font-size: 8px; font-family: 'Helvetica'; text-anchor: start; fill: #262626" x="60.089219" y="38.88298" transform="rotate(-0 60.089219 38.88298)">Safe first</text>
    </g>
    <g id="line2d_13">
     <g>
      <use xlink:href="#mbd745a0eef" x="51.689219" y="47.57048" style="fill: #ff7f0e; stroke: #000000; stroke-opacity: 0"/>
     </g>
    </g>
    <g id="text_10">
     <text style="font-size: 8px; font-family: 'Helvetica'; text-anchor: start; fill: #262626" x="60.089219" y="50.37048" transform="rotate(-0 60.089219 50.37048)">Risky first</text>
    </g>
   </g>
  </g>
  <g id="axes_2">
   <g id="patch_5">
    <path d="M 199.819479 124.02077 
L 346.74926 124.02077 
L 346.74926 28.34423 
L 199.819479 28.34423 
z
" style="fill: #ffffff"/>
   </g>
   <g id="line2d_14">
    <path d="M 199.819479 76.1825 
L 346.74926 76.1825 
" clip-path="url(#pabf5bbe054)" style="fill: none; stroke-dasharray: 1.85,0.8; stroke-dashoffset: 0; stroke: #000000; stroke-width: 0.5"/>
   </g>
   <g id="line2d_15">
    <path d="M 273.284369 124.02077 
L 273.284369 28.34423 
" clip-path="url(#pabf5bbe054)" style="fill: none; stroke-dasharray: 1.85,0.8; stroke-dashoffset: 0; stroke: #000000; stroke-width: 0.5"/>
   </g>
   <g id="matplotlib.axis_3">
    <g id="text_11">
     <text style="font-size: 10px; font-family: 'Helvetica'; text-anchor: middle; fill: #262626" x="273.284369" y="137.29577" transform="rotate(-0 273.284369 137.29577)">Risky / safe payoff</text>
    </g>
   </g>
   <g id="matplotlib.axis_4">
    <g id="ytick_6">
     <g id="line2d_16">
      <g>
       <use xlink:href="#m4580eafb7b" x="196.819479" y="121.312943" style="fill: #262626; stroke: #262626; stroke-width: 0.6"/>
      </g>
     </g>
    </g>
    <g id="ytick_7">
     <g id="line2d_17">
      <g>
       <use xlink:href="#m4580eafb7b" x="196.819479" y="98.747722" style="fill: #262626; stroke: #262626; stroke-width: 0.6"/>
      </g>
     </g>
    </g>
    <g id="ytick_8">
     <g id="line2d_18">
      <g>
       <use xlink:href="#m4580eafb7b" x="196.819479" y="76.1825" style="fill: #262626; stroke: #262626; stroke-width: 0.6"/>
      </g>
     </g>
    </g>
    <g id="ytick_9">
     <g id="line2d_19">
      <g>
       <use xlink:href="#m4580eafb7b" x="196.819479" y="53.617278" style="fill: #262626; stroke: #262626; stroke-width: 0.6"/>
      </g>
     </g>
    </g>
    <g id="ytick_10">
     <g id="line2d_20">
      <g>
       <use xlink:href="#m4580eafb7b" x="196.819479" y="31.052057" style="fill: #262626; stroke: #262626; stroke-width: 0.6"/>
      </g>
     </g>
    </g>
   </g>
   <g id="FillBetweenPolyCollection_3">
    <defs>
     <path id="m6dc60ced5e" d="M 206.498106 -42.957355 
L 206.498106 -35.802529 
L 228.760193 -44.826153 
L 251.022281 -51.29892 
L 273.284369 -60.118569 
L 295.546457 -68.634575 
L 317.808545 -76.484822 
L 340.070633 -82.269936 
L 340.070633 -91.056394 
L 340.070633 -91.056394 
L 317.808545 -84.567887 
L 295.546457 -77.721242 
L 273.284369 -69.275471 
L 251.022281 -61.876367 
L 228.760193 -53.246012 
L 206.498106 -42.957355 
z
"/>
    </defs>
    <g clip-path="url(#pabf5bbe054)">
     <use xlink:href="#m6dc60ced5e" x="0" y="140.87952" style="fill: #737373; fill-opacity: 0.15"/>
    </g>
   </g>
   <g id="FillBetweenPolyCollection_4">
    <defs>
     <path id="m893e9df313" d="M 206.498106 -43.507726 
L 206.498106 -35.802529 
L 228.760193 -44.489359 
L 251.022281 -52.004083 
L 273.284369 -60.118569 
L 295.546457 -68.331687 
L 317.808545 -75.474439 
L 340.070633 -82.269936 
L 340.070633 -90.65701 
L 340.070633 -90.65701 
L 317.808545 -84.904681 
L 295.546457 -77.418353 
L 273.284369 -69.929535 
L 251.022281 -62.58153 
L 228.760193 -53.582806 
L 206.498106 -43.507726 
z
"/>
    </defs>
    <g clip-path="url(#pabf5bbe054)">
     <use xlink:href="#m893e9df313" x="0" y="140.87952" style="fill: #737373; fill-opacity: 0.15"/>
    </g>
   </g>
   <g id="line2d_21">
    <path d="M 206.498106 101.36382 
L 228.760193 92.072458 
L 251.022281 84.390599 
L 273.284369 75.783521 
L 295.546457 67.290692 
L 317.808545 60.433996 
L 340.070633 54.370784 
" clip-path="url(#pabf5bbe054)" style="fill: none; stroke: #737373; stroke-width: 1.1; stroke-linecap: round"/>
   </g>
   <g id="line2d_22">
    <path d="M 206.498106 101.472059 
L 228.760193 92.234119 
L 251.022281 84.377671 
L 273.284369 75.445587 
L 295.546457 67.356318 
L 317.808545 60.348675 
L 340.070633 54.695616 
" clip-path="url(#pabf5bbe054)" style="fill: none; stroke: #737373; stroke-width: 1.1; stroke-linecap: round"/>
   </g>
   <g id="patch_6">
    <path d="M 196.819479 124.02077 
L 196.819479 28.34423 
" style="fill: none; stroke: #262626; stroke-width: 0.6; stroke-linejoin: miter; stroke-linecap: square"/>
   </g>
   <g id="patch_7">
    <path d="M 199.819479 127.02077 
L 346.74926 127.02077 
" style="fill: none; stroke: #262626; stroke-width: 0.6; stroke-linejoin: miter; stroke-linecap: square"/>
   </g>
   <g id="line2d_23">
    <g clip-path="url(#pabf5bbe054)">
     <use xlink:href="#m67f5a6b0fa" x="206.498106" y="97.371794" style="fill: #1f77b4; stroke: #000000; stroke-opacity: 0"/>
     <use xlink:href="#m67f5a6b0fa" x="228.760193" y="80.897621" style="fill: #1f77b4; stroke: #000000; stroke-opacity: 0"/>
     <use xlink:href="#m67f5a6b0fa" x="251.022281" y="74.419592" style="fill: #1f77b4; stroke: #000000; stroke-opacity: 0"/>
     <use xlink:href="#m67f5a6b0fa" x="273.284369" y="70.29592" style="fill: #1f77b4; stroke: #000000; stroke-opacity: 0"/>
     <use xlink:href="#m67f5a6b0fa" x="295.546457" y="60.129389" style="fill: #1f77b4; stroke: #000000; stroke-opacity: 0"/>
     <use xlink:href="#m67f5a6b0fa" x="317.808545" y="52.606895" style="fill: #1f77b4; stroke: #000000; stroke-opacity: 0"/>
     <use xlink:href="#m67f5a6b0fa" x="340.070633" y="51.021279" style="fill: #1f77b4; stroke: #000000; stroke-opacity: 0"/>
    </g>
   </g>
   <g id="line2d_24">
    <g clip-path="url(#pabf5bbe054)">
     <use xlink:href="#mbd745a0eef" x="206.498106" y="105.076991" style="fill: #ff7f0e; stroke: #000000; stroke-opacity: 0"/>
     <use xlink:href="#mbd745a0eef" x="228.760193" y="98.747722" style="fill: #ff7f0e; stroke: #000000; stroke-opacity: 0"/>
     <use xlink:href="#mbd745a0eef" x="251.022281" y="88.875437" style="fill: #ff7f0e; stroke: #000000; stroke-opacity: 0"/>
     <use xlink:href="#mbd745a0eef" x="273.284369" y="81.742047" style="fill: #ff7f0e; stroke: #000000; stroke-opacity: 0"/>
     <use xlink:href="#mbd745a0eef" x="295.546457" y="73.759389" style="fill: #ff7f0e; stroke: #000000; stroke-opacity: 0"/>
     <use xlink:href="#mbd745a0eef" x="317.808545" y="68.099436" style="fill: #ff7f0e; stroke: #000000; stroke-opacity: 0"/>
     <use xlink:href="#mbd745a0eef" x="340.070633" y="60.207122" style="fill: #ff7f0e; stroke: #000000; stroke-opacity: 0"/>
    </g>
   </g>
   <g id="text_12">
    <text style="font-size: 10px; font-family: 'Helvetica'; text-anchor: middle; fill: #262626" x="273.284369" y="22.34423" transform="rotate(-0 273.284369 22.34423)">Stake size Medium</text>
   </g>
  </g>
  <g id="axes_3">
   <g id="patch_8">
    <path d="M 358.74974 124.02077 
L 505.67952 124.02077 
L 505.67952 28.34423 
L 358.74974 28.34423 
z
" style="fill: #ffffff"/>
   </g>
   <g id="line2d_25">
    <path d="M 358.74974 76.1825 
L 505.67952 76.1825 
" clip-path="url(#p901846aa8e)" style="fill: none; stroke-dasharray: 1.85,0.8; stroke-dashoffset: 0; stroke: #000000; stroke-width: 0.5"/>
   </g>
   <g id="line2d_26">
    <path d="M 432.21463 124.02077 
L 432.21463 28.34423 
" clip-path="url(#p901846aa8e)" style="fill: none; stroke-dasharray: 1.85,0.8; stroke-dashoffset: 0; stroke: #000000; stroke-width: 0.5"/>
   </g>
   <g id="matplotlib.axis_5">
    <g id="text_13">
     <text style="font-size: 10px; font-family: 'Helvetica'; text-anchor: middle; fill: #262626" x="432.21463" y="137.29577" transform="rotate(-0 432.21463 137.29577)">Risky / safe payoff</text>
    </g>
   </g>
   <g id="matplotlib.axis_6">
    <g id="ytick_11">
     <g id="line2d_27">
      <g>
       <use xlink:href="#m4580eafb7b" x="355.74974" y="121.312943" style="fill: #262626; stroke: #262626; stroke-width: 0.6"/>
      </g>
     </g>
    </g>
    <g id="ytick_12">
     <g id="line2d_28">
      <g>
       <use xlink:href="#m4580eafb7b" x="355.74974" y="98.747722" style="fill: #262626; stroke: #262626; stroke-width: 0.6"/>
      </g>
     </g>
    </g>
    <g id="ytick_13">
     <g id="line2d_29">
      <g>
       <use xlink:href="#m4580eafb7b" x="355.74974" y="76.1825" style="fill: #262626; stroke: #262626; stroke-width: 0.6"/>
      </g>
     </g>
    </g>
    <g id="ytick_14">
     <g id="line2d_30">
      <g>
       <use xlink:href="#m4580eafb7b" x="355.74974" y="53.617278" style="fill: #262626; stroke: #262626; stroke-width: 0.6"/>
      </g>
     </g>
    </g>
    <g id="ytick_15">
     <g id="line2d_31">
      <g>
       <use xlink:href="#m4580eafb7b" x="355.74974" y="31.052057" style="fill: #262626; stroke: #262626; stroke-width: 0.6"/>
      </g>
     </g>
    </g>
   </g>
   <g id="FillBetweenPolyCollection_5">
    <defs>
     <path id="m46a974483a" d="M 365.428366 -40.804432 
L 365.428366 -33.172078 
L 387.690454 -37.555634 
L 409.952542 -45.729152 
L 432.21463 -54.741775 
L 454.476718 -62.022623 
L 476.738806 -67.479034 
L 499.000894 -71.144226 
L 499.000894 -80.098679 
L 499.000894 -80.098679 
L 476.738806 -76.134187 
L 454.476718 -72.051611 
L 432.21463 -62.705971 
L 409.952542 -54.23199 
L 387.690454 -46.392365 
L 365.428366 -40.804432 
z
"/>
    </defs>
    <g clip-path="url(#p901846aa8e)">
     <use xlink:href="#m46a974483a" x="0" y="140.87952" style="fill: #737373; fill-opacity: 0.15"/>
    </g>
   </g>
   <g id="FillBetweenPolyCollection_6">
    <defs>
     <path id="mf673cebecc" d="M 365.428366 -40.804432 
L 365.428366 -33.172078 
L 387.690454 -38.818024 
L 409.952542 -45.729152 
L 432.21463 -53.414409 
L 454.476718 -61.354024 
L 476.738806 -67.479034 
L 499.000894 -69.711514 
L 499.000894 -79.024145 
L 499.000894 -79.024145 
L 476.738806 -76.4433 
L 454.476718 -70.714412 
L 432.21463 -63.037813 
L 409.952542 -55.213086 
L 387.690454 -46.707962 
L 365.428366 -40.804432 
z
"/>
    </defs>
    <g clip-path="url(#p901846aa8e)">
     <use xlink:href="#mf673cebecc" x="0" y="140.87952" style="fill: #737373; fill-opacity: 0.15"/>
    </g>
   </g>
   <g id="line2d_32">
    <path d="M 365.428366 103.876885 
L 387.690454 97.851425 
L 409.952542 90.540304 
L 432.21463 82.168921 
L 454.476718 74.904361 
L 476.738806 69.406751 
L 499.000894 65.295079 
" clip-path="url(#p901846aa8e)" style="fill: none; stroke: #737373; stroke-width: 1.1; stroke-linecap: round"/>
   </g>
   <g id="line2d_33">
    <path d="M 365.428366 104.033957 
L 387.690454 98.095487 
L 409.952542 90.461816 
L 432.21463 82.304976 
L 454.476718 74.851988 
L 476.738806 69.149157 
L 499.000894 65.455065 
" clip-path="url(#p901846aa8e)" style="fill: none; stroke: #737373; stroke-width: 1.1; stroke-linecap: round"/>
   </g>
   <g id="patch_9">
    <path d="M 355.74974 124.02077 
L 355.74974 28.34423 
" style="fill: none; stroke: #262626; stroke-width: 0.6; stroke-linejoin: miter; stroke-linecap: square"/>
   </g>
   <g id="patch_10">
    <path d="M 358.74974 127.02077 
L 505.67952 127.02077 
" style="fill: none; stroke: #262626; stroke-width: 0.6; stroke-linejoin: miter; stroke-linecap: square"/>
   </g>
   <g id="line2d_34">
    <g clip-path="url(#p901846aa8e)">
     <use xlink:href="#m67f5a6b0fa" x="365.428366" y="95.097465" style="fill: #1f77b4; stroke: #000000; stroke-opacity: 0"/>
     <use xlink:href="#m67f5a6b0fa" x="387.690454" y="90.06879" style="fill: #1f77b4; stroke: #000000; stroke-opacity: 0"/>
     <use xlink:href="#m67f5a6b0fa" x="409.952542" y="83.377208" style="fill: #1f77b4; stroke: #000000; stroke-opacity: 0"/>
     <use xlink:href="#m67f5a6b0fa" x="432.21463" y="71.204878" style="fill: #1f77b4; stroke: #000000; stroke-opacity: 0"/>
     <use xlink:href="#m67f5a6b0fa" x="454.476718" y="67.490711" style="fill: #1f77b4; stroke: #000000; stroke-opacity: 0"/>
     <use xlink:href="#m67f5a6b0fa" x="476.738806" y="64.745333" style="fill: #1f77b4; stroke: #000000; stroke-opacity: 0"/>
     <use xlink:href="#m67f5a6b0fa" x="499.000894" y="61.139019" style="fill: #1f77b4; stroke: #000000; stroke-opacity: 0"/>
    </g>
   </g>
   <g id="line2d_35">
    <g clip-path="url(#p901846aa8e)">
     <use xlink:href="#mbd745a0eef" x="365.428366" y="109.698491" style="fill: #ff7f0e; stroke: #000000; stroke-opacity: 0"/>
     <use xlink:href="#mbd745a0eef" x="387.690454" y="103.008288" style="fill: #ff7f0e; stroke: #000000; stroke-opacity: 0"/>
     <use xlink:href="#mbd745a0eef" x="409.952542" y="98.747722" style="fill: #ff7f0e; stroke: #000000; stroke-opacity: 0"/>
     <use xlink:href="#mbd745a0eef" x="432.21463" y="94.765624" style="fill: #ff7f0e; stroke: #000000; stroke-opacity: 0"/>
     <use xlink:href="#mbd745a0eef" x="454.476718" y="81.865593" style="fill: #ff7f0e; stroke: #000000; stroke-opacity: 0"/>
     <use xlink:href="#mbd745a0eef" x="476.738806" y="76.1825" style="fill: #ff7f0e; stroke: #000000; stroke-opacity: 0"/>
     <use xlink:href="#mbd745a0eef" x="499.000894" y="72.242541" style="fill: #ff7f0e; stroke: #000000; stroke-opacity: 0"/>
    </g>
   </g>
   <g id="text_14">
    <text style="font-size: 8px; font-family: 'Helvetica'; text-anchor: end; fill: #737373" x="501.271627" y="118.526208" transform="rotate(-0 501.271627 118.526208)">Model: both orders</text>
   </g>
   <g id="text_15">
    <text style="font-size: 10px; font-family: 'Helvetica'; text-anchor: middle; fill: #262626" x="432.21463" y="22.34423" transform="rotate(-0 432.21463 22.34423)">Stake size Large</text>
   </g>
  </g>
  <g id="text_16">
   <text style="font-weight: 700; font-size: 8px; font-family: 'Helvetica'; text-anchor: middle; fill: #262626" x="253.55976" y="7.2325" transform="rotate(-0 253.55976 7.2325)">Model B: Varying priors, equal noise</text>
  </g>
 </g>
 <defs>
  <clipPath id="pfd984fa087">
   <rect x="40.889219" y="28.34423" width="146.92978" height="95.67654"/>
  </clipPath>
  <clipPath id="pabf5bbe054">
   <rect x="199.819479" y="28.34423" width="146.92978" height="95.67654"/>
  </clipPath>
  <clipPath id="p901846aa8e">
   <rect x="358.74974" y="28.34423" width="146.92978" height="95.67654"/>
  </clipPath>
 </defs>
</svg>
