<?xml version="1.0" encoding="utf-8" standalone="no"?>
<!DOCTYPE svg PUBLIC "-//W3C//DTD SVG 1.1//EN"
  "http://www.w3.org/Graphics/SVG/1.1/DTD/svg11.dtd">
<svg xmlns:xlink="http://www.w3.org/1999/xlink" width="80.16pt" height="31.632pt" viewBox="0 0 80.16 31.632" xmlns="http://www.w3.org/2000/svg" version="1.1">
 <metadata>
  <rdf:RDF xmlns:dc="http://purl.org/dc/elements/1.1/" xmlns:cc="http://creativecommons.org/ns#" xmlns:rdf="http://www.w3.org/1999/02/22-rdf-syntax-ns#">
   <cc:Work>
    <dc:type rdf:resource="http://purl.org/dc/dcmitype/StillImage"/>
    <dc:date>2026-06-17T11:26:00.476723</dc:date>
    <dc:format>image/svg+xml</dc:format>
    <dc:creator>
     <cc:Agent>
      <dc:title>Matplotlib v3.10.6, https://matplotlib.org/</dc:title>
     </cc:Agent>
    </dc:creator>
   </cc:Work>
  </rdf:RDF>
 </metadata>
 <defs>
  <style type="text/css">*{stroke-linejoin: round; stroke-linecap: butt}</style>
 </defs>
 <g id="figure_1">
  <g id="patch_1">
   <path d="M 0 31.632 
L 80.16 31.632 
L 80.16 0 
L 0 0 
L 0 31.632 
z
" style="fill: none"/>
  </g>
  <g id="axes_1">
   <g id="legend_1">
    <g id="patch_2">
     <path d="M 15.814609 27.952797 
L 64.345391 27.952797 
Q 65.745391 27.952797 65.745391 26.552797 
L 65.745391 5.079203 
Q 65.745391 3.679203 64.345391 3.679203 
L 15.814609 3.679203 
Q 14.414609 3.679203 14.414609 5.079203 
L 14.414609 26.552797 
Q 14.414609 27.952797 15.814609 27.952797 
z
" style="fill: #ffffff; stroke: #999999; stroke-width: 0.5; stroke-linejoin: miter"/>
    </g>
    <g id="line2d_1">
     <defs>
      <path id="m0f9feda0f4" d="M 0 2.5 
C 0.663008 2.5 1.29895 2.236584 1.767767 1.767767 
C 2.236584 1.29895 2.5 0.663008 2.5 0 
C 2.5 -0.663008 2.236584 -1.29895 1.767767 -1.767767 
C 1.29895 -2.236584 0.663008 -2.5 0 -2.5 
C -0.663008 -2.5 -1.29895 -2.236584 -1.767767 -1.767767 
C -2.236584 -1.29895 -2.5 -0.663008 -2.5 0 
C -2.5 0.663008 -2.236584 1.29895 -1.767767 1.767767 
C -1.29895 2.236584 -0.663008 2.5 0 2.5 
z
" style="stroke: #1f77b4"/>
     </defs>
     <g>
      <use xlink:href="#m0f9feda0f4" x="23.864609" y="10.450609" style="fill: #1f77b4; stroke: #1f77b4"/>
     </g>
    </g>
    <g id="text_1">
     <text style="font-size: 7px; font-family: 'Helvetica'; text-anchor: start; fill: #262626" x="31.214609" y="12.900609" transform="rotate(-0 31.214609 12.900609)">Safe first</text>
    </g>
    <g id="line2d_2">
     <defs>
      <path id="m854fa6852b" d="M 0 2.5 
C 0.663008 2.5 1.29895 2.236584 1.767767 1.767767 
C 2.236584 1.29895 2.5 0.663008 2.5 0 
C 2.5 -0.663008 2.236584 -1.29895 1.767767 -1.767767 
C 1.29895 -2.236584 0.663008 -2.5 0 -2.5 
C -0.663008 -2.5 -1.29895 -2.236584 -1.767767 -1.767767 
C -2.236584 -1.29895 -2.5 -0.663008 -2.5 0 
C -2.5 0.663008 -2.236584 1.29895 -1.767767 1.767767 
C -1.29895 2.236584 -0.663008 2.5 0 2.5 
z
" style="stroke: #ff7f0e"/>
     </defs>
     <g>
      <use xlink:href="#m854fa6852b" x="23.864609" y="19.802172" style="fill: #ff7f0e; stroke: #ff7f0e"/>
     </g>
    </g>
    <g id="text_2">
     <text style="font-size: 7px; font-family: 'Helvetica'; text-anchor: start; fill: #262626" x="31.214609" y="22.252172" transform="rotate(-0 31.214609 22.252172)">Risky first</text>
    </g>
   </g>
  </g>
 </g>
</svg>
